# Blender 3.5.1
# www.blender.org
o Cube
v -0.750000 -0.750000 0.750000
v -0.750000 0.750000 0.750000
v -0.750000 -0.750000 -0.750000
v -0.750000 0.750000 -0.750000
v 0.750000 -0.750000 0.750000
v 0.750000 0.750000 0.750000
v 0.750000 -0.750000 -0.750000
v 0.750000 0.750000 -0.750000
v -0.750000 -0.650000 0.650000
v -0.750000 0.650000 0.650000
v -0.750000 0.650000 -0.650000
v -0.750000 -0.650000 -0.650000
v -0.650000 -0.650000 -0.750000
v -0.650000 0.650000 -0.750000
v 0.650000 0.650000 -0.750000
v 0.650000 -0.650000 -0.750000
v 0.750000 -0.650000 -0.650000
v 0.750000 0.650000 -0.650000
v 0.750000 0.650000 0.650000
v 0.750000 -0.650000 0.650000
v 0.650000 -0.650000 0.750000
v 0.650000 0.650000 0.750000
v -0.650000 0.650000 0.750000
v -0.650000 -0.650000 0.750000
v -0.650000 -0.750000 -0.650000
v 0.650000 -0.750000 -0.650000
v 0.650000 -0.750000 0.650000
v -0.650000 -0.750000 0.650000
v 0.650000 0.750000 -0.650000
v -0.650000 0.750000 -0.650000
v -0.650000 0.750000 0.650000
v 0.650000 0.750000 0.650000
v -0.750000 -0.650000 0.650000
v -0.750000 0.650000 0.650000
v -0.750000 0.650000 -0.650000
v -0.750000 -0.650000 -0.650000
v -0.650000 -0.650000 -0.750000
v -0.650000 0.650000 -0.750000
v 0.650000 0.650000 -0.750000
v 0.650000 -0.650000 -0.750000
v 0.750000 -0.650000 -0.650000
v 0.750000 0.650000 -0.650000
v 0.750000 0.650000 0.650000
v 0.750000 -0.650000 0.650000
v 0.650000 -0.650000 0.750000
v 0.650000 0.650000 0.750000
v -0.650000 0.650000 0.750000
v -0.650000 -0.650000 0.750000
v -0.650000 -0.750000 -0.650000
v 0.650000 -0.750000 -0.650000
v 0.650000 -0.750000 0.650000
v -0.650000 -0.750000 0.650000
v 0.650000 0.750000 -0.650000
v -0.650000 0.750000 -0.650000
v -0.650000 0.750000 0.650000
v 0.650000 0.750000 0.650000
v -0.675000 -0.585000 0.585000
v -0.675000 0.585000 0.585000
v -0.675000 0.585000 -0.585000
v -0.675000 -0.585000 -0.585000
v -0.585000 -0.585000 -0.675000
v -0.585000 0.585000 -0.675000
v 0.585000 0.585000 -0.675000
v 0.585000 -0.585000 -0.675000
v 0.675000 -0.585000 -0.585000
v 0.675000 0.585000 -0.585000
v 0.675000 0.585000 0.585000
v 0.675000 -0.585000 0.585000
v 0.585000 -0.585000 0.675000
v 0.585000 0.585000 0.675000
v -0.585000 0.585000 0.675000
v -0.585000 -0.585000 0.675000
v -0.585000 -0.675000 -0.585000
v 0.585000 -0.675000 -0.585000
v 0.585000 -0.675000 0.585000
v -0.585000 -0.675000 0.585000
v 0.585000 0.675000 -0.585000
v -0.585000 0.675000 -0.585000
v -0.585000 0.675000 0.585000
v 0.585000 0.675000 0.585000
vn -0.0000 1.0000 -0.0000
vn -1.0000 -0.0000 -0.0000
vn -0.0000 -0.0000 -1.0000
vn 1.0000 -0.0000 -0.0000
vn -0.0000 -0.0000 1.0000
vn -0.0000 -1.0000 -0.0000
vn -0.0000 -0.6549 -0.7557
vn 0.7557 -0.0000 -0.6549
vn 0.6549 -0.0000 -0.7557
vn -0.7557 -0.6549 -0.0000
vn -0.6549 -0.0000 0.7557
vn 0.6549 -0.7557 -0.0000
vn -0.7557 -0.0000 0.6549
vn -0.0000 0.7557 -0.6549
vn -0.0000 0.6549 0.7557
vn -0.0000 0.7557 0.6549
vn -0.0000 -0.7557 -0.6549
vn -0.7557 0.6549 -0.0000
vn -0.0000 -0.7557 0.6549
vn -0.7557 -0.0000 -0.6549
vn 0.7557 0.6549 -0.0000
vn -0.6549 -0.0000 -0.7557
vn 0.7557 -0.0000 0.6549
vn 0.6549 -0.0000 0.7557
vn -0.0000 0.6549 -0.7557
vn -0.6549 0.7557 -0.0000
vn -0.0000 -0.6549 0.7557
vn 0.6549 0.7557 -0.0000
vn -0.6549 -0.7557 -0.0000
vn 0.7557 -0.6549 -0.0000
vn -0.5774 0.5773 0.5774
vn 0.5774 0.5773 0.5774
vn -0.0000 0.7071 0.7071
vn -0.5774 0.5773 -0.5774
vn -0.5773 0.5774 0.5774
vn -0.5773 -0.5774 -0.5774
vn -0.5774 -0.5773 0.5774
vn -0.0000 -0.7071 0.7071
vn 0.7071 -0.7071 -0.0000
vn -0.0000 -0.7071 -0.7071
vn -0.7071 -0.7071 -0.0000
vn 0.7071 -0.0000 0.7071
vn -0.7071 -0.0000 0.7071
vn 0.5773 -0.5774 0.5774
vn -0.7071 -0.0000 -0.7071
vn 0.5773 0.5774 -0.5774
vn 0.7071 -0.0000 -0.7071
vn 0.7071 0.7071 -0.0000
vn -0.7071 0.7071 -0.0000
vn -0.0000 0.7071 -0.7071
vt 0.375000 0.000000
vt 0.375000 1.000000
vt 0.125000 0.750000
vt 0.625000 0.000000
vt 0.625000 1.000000
vt 0.875000 0.750000
vt 0.375000 0.250000
vt 0.125000 0.500000
vt 0.625000 0.250000
vt 0.875000 0.500000
vt 0.375000 0.750000
vt 0.625000 0.750000
vt 0.375000 0.500000
vt 0.625000 0.500000
vt 0.391667 0.016667
vt 0.608333 0.016667
vt 0.608333 0.233333
vt 0.391667 0.233333
vt 0.391667 0.266667
vt 0.608333 0.266667
vt 0.608333 0.483333
vt 0.391667 0.483333
vt 0.391667 0.516667
vt 0.608333 0.516667
vt 0.608333 0.733333
vt 0.391667 0.733333
vt 0.391667 0.766667
vt 0.608333 0.766667
vt 0.608333 0.983333
vt 0.391667 0.983333
vt 0.141667 0.516667
vt 0.358333 0.516667
vt 0.358333 0.733333
vt 0.141667 0.733333
vt 0.641667 0.516667
vt 0.858333 0.516667
vt 0.858333 0.733333
vt 0.641667 0.733333
vt 0.391667 0.016667
vt 0.608333 0.016667
vt 0.608333 0.233333
vt 0.391667 0.233333
vt 0.391667 0.266667
vt 0.608333 0.266667
vt 0.608333 0.483333
vt 0.391667 0.483333
vt 0.391667 0.516667
vt 0.608333 0.516667
vt 0.608333 0.733333
vt 0.391667 0.733333
vt 0.391667 0.766667
vt 0.608333 0.766667
vt 0.608333 0.983333
vt 0.391667 0.983333
vt 0.141667 0.516667
vt 0.358333 0.516667
vt 0.358333 0.733333
vt 0.141667 0.733333
vt 0.641667 0.516667
vt 0.858333 0.516667
vt 0.858333 0.733333
vt 0.641667 0.733333
vt 0.391667 0.016667
vt 0.000000 0.000000
vt 0.608333 0.016667
vt 0.000000 0.000000
vt 0.608333 0.233333
vt 0.000000 0.000000
vt 0.391667 0.233333
vt 0.000000 0.000000
vt 0.391667 0.266667
vt 0.000000 0.000000
vt 0.000000 0.000000
vt 0.608333 0.266667
vt 0.608333 0.483333
vt 0.000000 0.000000
vt 0.391667 0.483333
vt 0.000000 0.000000
vt 0.391667 0.516667
vt 0.000000 0.000000
vt 0.000000 0.000000
vt 0.608333 0.516667
vt 0.608333 0.733333
vt 0.000000 0.000000
vt 0.391667 0.733333
vt 0.000000 0.000000
vt 0.391667 0.766667
vt 0.000000 0.000000
vt 0.000000 0.000000
vt 0.608333 0.766667
vt 0.608333 0.983333
vt 0.000000 0.000000
vt 0.391667 0.983333
vt 0.000000 0.000000
vt 0.000000 0.000000
vt 0.141667 0.516667
vt 0.358333 0.516667
vt 0.000000 0.000000
vt 0.358333 0.733333
vt 0.000000 0.000000
vt 0.000000 0.000000
vt 0.141667 0.733333
vt 0.000000 0.000000
vt 0.641667 0.516667
vt 0.858333 0.516667
vt 0.000000 0.000000
vt 0.858333 0.733333
vt 0.000000 0.000000
vt 0.641667 0.733333
vt 0.000000 0.000000
s 0
f 21/27/1 22/28/1 46/52/1 45/51/1
f 16/22/1 13/19/1 37/43/1 40/46/1
f 17/23/1 18/24/1 42/48/1 41/47/1
f 12/18/1 9/15/1 33/39/1 36/42/1
f 13/19/1 14/20/1 38/44/1 37/43/1
f 9/15/1 10/16/1 34/40/1 33/39/1
f 1/1/2 2/4/2 10/16/2 9/15/2
f 2/4/2 4/9/2 11/17/2 10/16/2
f 4/9/2 3/7/2 12/18/2 11/17/2
f 3/7/2 1/1/2 9/15/2 12/18/2
f 3/7/3 4/9/3 14/20/3 13/19/3
f 4/9/3 8/14/3 15/21/3 14/20/3
f 8/14/3 7/13/3 16/22/3 15/21/3
f 7/13/3 3/7/3 13/19/3 16/22/3
f 7/13/4 8/14/4 18/24/4 17/23/4
f 8/14/4 6/12/4 19/25/4 18/24/4
f 6/12/4 5/11/4 20/26/4 19/25/4
f 5/11/4 7/13/4 17/23/4 20/26/4
f 5/11/5 6/12/5 22/28/5 21/27/5
f 6/12/5 2/5/5 23/29/5 22/28/5
f 2/5/5 1/2/5 24/30/5 23/29/5
f 1/2/5 5/11/5 21/27/5 24/30/5
f 3/8/6 7/13/6 26/32/6 25/31/6
f 7/13/6 5/11/6 27/33/6 26/32/6
f 5/11/6 1/3/6 28/34/6 27/33/6
f 1/3/6 3/8/6 25/31/6 28/34/6
f 8/14/1 4/10/1 30/36/1 29/35/1
f 4/10/1 2/6/1 31/37/1 30/36/1
f 2/6/1 6/12/1 32/38/1 31/37/1
f 6/12/1 8/14/1 29/35/1 32/38/1
f 51/57/7 52/58/7 76/102/7 75/99/7
f 37/43/8 38/44/8 62/74/8 61/71/8
f 43/49/9 44/50/9 68/85/9 67/83/9
f 50/56/10 51/57/10 75/99/10 74/97/10
f 35/41/11 36/42/11 60/69/11 59/67/11
f 42/48/12 43/49/12 67/83/12 66/82/12
f 10/16/1 11/17/1 35/41/1 34/40/1
f 20/26/1 17/23/1 41/47/1 44/50/1
f 25/31/1 26/32/1 50/56/1 49/55/1
f 14/20/1 15/21/1 39/45/1 38/44/1
f 24/30/1 21/27/1 45/51/1 48/54/1
f 29/35/1 30/36/1 54/60/1 53/59/1
f 11/17/1 12/18/1 36/42/1 35/41/1
f 18/24/1 19/25/1 43/49/1 42/48/1
f 28/34/1 25/31/1 49/55/1 52/58/1
f 15/21/1 16/22/1 40/46/1 39/45/1
f 22/28/1 23/29/1 47/53/1 46/52/1
f 32/38/1 29/35/1 53/59/1 56/62/1
f 19/25/1 20/26/1 44/50/1 43/49/1
f 26/32/1 27/33/1 51/57/1 50/56/1
f 23/29/1 24/30/1 48/54/1 47/53/1
f 30/36/1 31/37/1 55/61/1 54/60/1
f 27/33/1 28/34/1 52/58/1 51/57/1
f 31/37/1 32/38/1 56/62/1 55/61/1
f 45/51/13 46/52/13 70/90/13 69/87/13
f 40/46/14 37/43/14 61/71/14 64/77/14
f 53/59/15 54/60/15 78/105/15 77/104/15
f 48/54/16 45/51/16 69/87/16 72/93/16
f 38/44/17 39/45/17 63/75/17 62/74/17
f 56/62/18 53/59/18 77/104/18 80/109/18
f 46/52/19 47/53/19 71/91/19 70/90/19
f 39/45/20 40/46/20 64/77/20 63/75/20
f 54/60/21 55/61/21 79/107/21 78/105/21
f 33/39/22 34/40/22 58/65/22 57/63/22
f 47/53/23 48/54/23 72/93/23 71/91/23
f 41/47/24 42/48/24 66/82/24 65/79/24
f 55/61/25 56/62/25 80/109/25 79/107/25
f 36/42/26 33/39/26 57/63/26 60/69/26
f 49/55/27 50/56/27 74/97/27 73/96/27
f 44/50/28 41/47/28 65/79/28 68/85/28
f 34/40/29 35/41/29 59/67/29 58/65/29
f 52/58/30 49/55/30 73/96/30 76/102/30
f 65/80/31 64/78/31 74/98/31
f 61/72/32 60/70/32 73/95/32
f 61/72/33 73/95/33 74/97/33 64/78/33
f 62/73/34 59/68/34 78/106/34
f 79/108/35 58/66/35 71/92/35
f 80/110/36 67/84/36 70/89/36
f 63/76/37 66/81/37 77/103/37
f 63/76/38 77/103/38 78/105/38 62/73/38
f 59/68/39 78/106/39 79/107/39 58/66/39
f 71/92/40 79/108/40 80/109/40 70/89/40
f 67/84/41 80/110/41 77/104/41 66/81/41
f 60/70/42 61/72/42 62/74/42 59/68/42
f 64/78/43 65/80/43 66/82/43 63/76/43
f 75/100/44 68/86/44 69/88/44
f 68/86/45 69/88/45 70/90/45 67/84/45
f 76/101/46 57/64/46 72/94/46
f 58/66/47 71/92/47 72/93/47 57/64/47
f 57/64/48 76/101/48 73/96/48 60/70/48
f 65/80/49 74/98/49 75/99/49 68/86/49
f 69/88/50 75/100/50 76/102/50 72/94/50
