{
	"asset":{
		"generator":"Khronos glTF Blender I/O v3.5.30",
		"version":"2.0"
	},
	"scene":0,
	"scenes":[
		{
			"name":"Scene",
			"nodes":[
				0
			]
		}
	],
	"nodes":[
		{
			"mesh":0,
			"name":"Morille",
			"translation":[
				0.1888532042503357,
				0.12654423713684082,
				1.8552136421203613
			]
		}
	],
	"materials":[
		{
			"doubleSided":true,
			"emissiveFactor":[
				1,
				1,
				1
			],
			"name":"Material",
			"pbrMetallicRoughness":{
				"baseColorFactor":[
					0,
					0,
					0,
					1
				]
			}
		}
	],
	"meshes":[
		{
			"name":"Sphere.002",
			"primitives":[
				{
					"attributes":{
						"POSITION":0,
						"TEXCOORD_0":1,
						"NORMAL":2
					},
					"indices":3,
					"material":0
				}
			]
		}
	],
	"accessors":[
		{
			"bufferView":0,
			"componentType":5126,
			"count":22585,
			"max":[
				0.22246509790420532,
				0.4993441104888916,
				0.26930201053619385
			],
			"min":[
				-0.22246509790420532,
				-0.4993441104888916,
				-0.2693021297454834
			],
			"type":"VEC3"
		},
		{
			"bufferView":1,
			"componentType":5126,
			"count":22585,
			"type":"VEC2"
		},
		{
			"bufferView":2,
			"componentType":5126,
			"count":22585,
			"type":"VEC3"
		},
		{
			"bufferView":3,
			"componentType":5123,
			"count":68340,
			"type":"SCALAR"
		}
	],
	"bufferViews":[
		{
			"buffer":0,
			"byteLength":271020,
			"byteOffset":0,
			"target":34962
		},
		{
			"buffer":0,
			"byteLength":180680,
			"byteOffset":271020,
			"target":34962
		},
		{
			"buffer":0,
			"byteLength":271020,
			"byteOffset":451700,
			"target":34962
		},
		{
			"buffer":0,
			"byteLength":136680,
			"byteOffset":722720,
			"target":34963
		}
	],
	"buffers":[
		{
			"byteLength":859400,
			"uri":"data:application/octet-stream;base64,"
		}
	]
}
